<svg width="25" height="25" viewBox="0 0 25 25" fill="none" xmlns="http://www.w3.org/2000/svg">
<path d="M21.875 16.9922C21.7896 17.5171 21.2036 22.3633 21.1182 23.4375C15.3624 23.2276 10.3811 23.2059 3.125 23.4375V22.1924C5.34458 21.7555 6.0853 21.8008 6.10352 20.4712C6.19106 16.9398 6.27559 8.55015 6.10352 4.74854C6.05327 3.35889 5.51123 3.44165 3.125 2.99072V1.74561C6.73271 1.86074 15.6217 2.16313 20.8496 1.5625C20.6787 3.43018 20.4711 7.73926 20.4711 7.73926H19.3359C18.7962 5.64771 18.42 3.32031 16.6626 3.32031H9.97314C9.47266 3.32031 9.44824 3.49121 9.44824 3.79639V11.792C12.2803 11.8164 13.7695 11.6699 13.7695 11.6699C15.2231 11.6235 15.1152 11.2548 15.7593 8.48384H17.0166C16.8014 13.4326 16.8257 11.5028 16.9312 16.3085H15.6738C15.2268 14.3512 15.2312 13.3278 13.7451 13.3056C13.7451 13.3056 12.6953 13.208 9.44819 13.208V19.9951C9.44819 21.2646 10.144 21.8627 11.6088 21.8627H15.9668C19.074 21.8627 19.217 20.6422 20.7886 16.9921H21.875V16.9922Z" fill="black"/>
</svg>
