<svg width="265" height="214" viewBox="0 0 265 214" fill="none" xmlns="http://www.w3.org/2000/svg">
<path d="M203.089 61.901C202.839 61.901 202.599 61.7604 202.484 61.5208C198.401 52.9947 193.177 45.0416 186.953 37.875C186.708 37.5989 186.74 37.177 187.021 36.9375C187.297 36.6979 187.719 36.7239 187.958 37.0052C194.26 44.2604 199.552 52.3177 203.687 60.9479C203.844 61.2812 203.708 61.677 203.375 61.8385C203.281 61.8802 203.182 61.901 203.089 61.901Z" fill="#CE882B"/>
<path d="M187.979 34.0466C184.386 37.6351 180.958 40.0258 180.318 39.3851C179.677 38.7445 182.073 35.3174 185.662 31.7341L187.563 29.8383C191.156 26.2497 194.589 23.8591 195.229 24.4945C195.87 25.1351 193.474 28.5622 189.88 32.1508L187.979 34.0466ZM194.453 30.9112C196.25 29.0518 201.057 24.0362 198.359 21.3331C196.031 19.0101 191.25 23.0726 189.469 24.7758C186.761 27.3695 184.052 29.9581 181.344 32.5518C180.307 33.5414 176.734 37.2758 175.724 38.2966C174.594 39.4372 110.906 104.979 65.6042 151.416C35.8022 181.968 24.8386 195.021 24.8386 195.021C24.8386 195.021 41.3386 180.646 68.7709 154.047C115.333 108.896 180.24 45.1039 181.354 43.9997C181.511 43.8435 184.75 40.6091 184.912 40.4476C188.094 37.2706 191.333 34.1456 194.453 30.9112Z" fill="#CE882B"/>
<mask id="mask0_15_207" style="mask-type:luminance" maskUnits="userSpaceOnUse" x="0" y="0" width="265" height="214">
<path d="M0 0H264.875V213.995H0V0Z" fill="white"/>
</mask>
<g mask="url(#mask0_15_207)">
<path d="M238.885 80.3958C238.333 80.3958 237.781 80.599 237.266 81C236.151 81.8646 236.162 85.9948 238.276 89.4531C239.188 90.9427 240.854 92.8698 243.568 93.4323C243.839 91.9115 243.938 90.6458 243.88 89.7292C243.531 84.1719 241.526 81.349 239.912 80.625C239.573 80.4688 239.229 80.3958 238.885 80.3958ZM175.479 77.8906C170.766 77.8906 166.948 79.1458 164.094 80.6198C155.495 85.0573 150.734 93.901 149.839 100.698C148.813 108.474 151.609 116.797 157.323 122.964C162.948 129.036 174.01 136.042 194.776 134.932C199.932 134.656 204.771 133.786 209.287 132.323C211.099 121.286 213.156 93.7188 191.422 82.2552C185.328 79.0417 179.995 77.8906 175.479 77.8906ZM107.047 213.911C48.0157 213.911 -0.010376 165.958 -0.010376 107.01C-0.010376 48.0625 48.0157 0.109375 107.047 0.109375C137.13 0.109375 166.005 12.8594 186.26 35.0938C186.292 35.1302 186.552 35.4375 186.552 35.4375L185.578 36.3073C185.578 36.3073 185.307 36.026 185.276 35.9896C165.271 14.0313 136.755 1.44271 107.047 1.44271C48.75 1.44271 1.32296 48.8021 1.32296 107.01C1.32296 165.224 48.75 212.583 107.047 212.583C153.589 212.583 194.12 182.849 207.901 138.594L208.354 136.958C208.422 136.703 208.703 135.557 209.037 133.75C204.568 135.151 199.823 135.995 194.844 136.26C173.563 137.396 162.162 130.151 156.344 123.87C150.365 117.417 147.438 108.688 148.516 100.526C149.667 91.8125 155.542 83.5313 163.484 79.4375C169.354 76.4063 179.073 74.2344 192.047 81.0781C202.646 86.6719 209.031 96.599 211.026 110.589C212.219 118.99 211.526 126.781 210.734 131.828C218.526 129.042 225.307 124.438 231 118.057C238.177 110.005 241.948 100.802 243.307 94.7396C239.964 94.0365 238.016 91.5781 237.141 90.1458C234.849 86.4063 234.51 81.4479 236.448 79.9479C237.677 78.9896 239.104 78.7969 240.458 79.4115C243.109 80.6042 244.885 84.4271 245.214 89.6458C245.271 90.6198 245.172 91.9688 244.88 93.5885C246.375 93.6458 248.162 93.2969 250.245 92.3281C257.823 88.8021 260.875 82.1198 262.026 78.4583C263.594 73.4427 263.484 68.0781 261.745 65.1094C261.557 64.7917 261.672 64.3854 261.984 64.1979C262.307 64.0104 262.714 64.1198 262.896 64.4375C264.844 67.7656 265 73.4219 263.297 78.8542C262.083 82.7292 258.849 89.7917 250.807 93.5365C248.406 94.6563 246.349 95.0208 244.609 94.9115C243.214 101.208 239.344 110.698 231.99 118.943C226.078 125.573 218.797 130.406 210.495 133.271C210.141 135.266 209.802 136.667 209.641 137.297L209.182 138.969C202.448 160.599 189.26 179.193 171.042 192.771C152.484 206.604 130.354 213.911 107.047 213.911Z" fill="#CE882B"/>
</g>
<path d="M18.3346 123.532C19.3919 123.397 20.3034 123.694 21.0638 124.428C21.8294 125.168 22.3034 126.157 22.4805 127.407C22.5638 128.105 22.5586 128.86 22.4596 129.678C22.3659 130.501 22.1836 131.189 21.918 131.741L21.4388 131.824C20.4544 131.965 19.5117 132.001 18.6055 131.928L18.4388 130.657L20.7721 129.449C21.0117 128.689 21.0638 127.834 20.9388 126.886C20.5638 126.277 20.0378 126.022 19.3555 126.116C18.7461 126.199 18.2721 126.652 17.9388 127.47L16.9388 130.282C16.3451 131.772 15.4492 132.595 14.2513 132.761C13.2253 132.897 12.3294 132.6 11.5638 131.866C10.8034 131.116 10.3294 130.069 10.1471 128.72C9.9961 127.553 10.0586 126.376 10.3346 125.178C11.5742 125.001 12.6576 124.949 13.5846 125.032L13.7721 126.428L11.8555 127.199C11.6211 127.939 11.5742 128.777 11.7096 129.72C12.1159 130.22 12.6211 130.428 13.2305 130.345C13.5951 130.303 13.8919 130.105 14.1263 129.741C14.3659 129.381 14.6419 128.699 14.9596 127.699C15.2669 126.689 15.543 125.939 15.793 125.449C16.0326 124.949 16.3555 124.527 16.7721 124.178C17.1888 123.834 17.7096 123.616 18.3346 123.532Z" fill="black"/>
<path d="M19.6237 109.752C19.6393 109.419 19.5768 108.929 19.4362 108.273L20.332 108.085L21.6028 110.856C21.6028 111.388 21.4153 111.872 21.0403 112.315C20.6653 112.763 20.2382 112.976 19.7487 112.96L14.6237 112.794L14.6028 114.044L13.6862 114.065C13.3841 113.606 13.1184 113.122 12.8945 112.606L10.6237 111.648L10.6653 110.44L12.9778 110.21L13.0612 107.794L13.832 107.773L14.8112 108.69L14.7695 110.231L18.7903 110.377C19.0976 110.377 19.3112 110.335 19.4362 110.252C19.5507 110.158 19.6132 109.992 19.6237 109.752Z" fill="black"/>
<path d="M13.1687 94.9393C12.7 95.6372 12.1062 96.1685 11.3979 96.5435C10.7052 96.0174 10.1895 95.3976 9.8562 94.6893C10.3458 94.0643 10.9552 93.5799 11.6895 93.231C12.3458 93.6789 12.8354 94.2466 13.1687 94.9393ZM21.7312 95.3768C22.0125 94.8664 22.2625 94.4705 22.4812 94.1893L23.3145 94.4185L22.3979 99.4393L21.7729 99.3768C21.6635 99.0018 21.5593 98.533 21.4604 97.9601L15.627 96.8768L15.2312 98.1268L14.3562 98.106C14.1635 97.0382 14.1583 95.9705 14.3354 94.8976L15.252 94.1685L21.7312 95.3768Z" fill="black"/>
<path d="M25.2869 81.349C25.3963 81.0313 25.4796 80.5365 25.5369 79.8698L26.4327 79.974L26.8494 82.9948C26.6932 83.4844 26.3702 83.8854 25.8702 84.2031C25.3859 84.526 24.9223 84.6146 24.4744 84.474L19.6202 82.8073L19.2244 83.9948L18.3494 83.7448C18.1984 83.2188 18.089 82.6771 18.0161 82.1198L16.1202 80.5365L16.5161 79.4115L18.7869 79.849L19.5786 77.5781L20.3286 77.7865L20.9952 78.9323L20.4952 80.3906L24.3077 81.7031C24.589 81.8021 24.8025 81.8229 24.9536 81.7656C25.0942 81.7135 25.2036 81.5729 25.2869 81.349Z" fill="black"/>
<path d="M33.384 68.1733L33.1548 68.6941C32.5559 69.793 31.7017 70.5066 30.5923 70.8399C29.4673 71.1628 28.3215 71.0066 27.1548 70.3816C25.9621 69.7462 25.1861 68.8608 24.8215 67.7358C24.4465 66.6108 24.5611 65.5014 25.1548 64.4024C25.4881 63.767 25.9413 63.267 26.509 62.9024C27.0819 62.543 27.6965 62.392 28.3631 62.4441L28.6131 64.7774C27.4621 64.9441 26.5923 65.3087 26.009 65.8608C26.3163 66.7358 26.9621 67.4389 27.9465 67.9649C28.7694 68.4128 29.5454 68.5691 30.2798 68.4441C30.9986 68.3191 31.5559 67.892 31.9465 67.1524C32.2381 66.6264 32.4048 65.9858 32.4465 65.2358L33.384 65.3191V68.1733Z" fill="black"/>
<path d="M43.5479 50.5711C43.9333 50.2951 44.3239 50.0659 44.7145 49.8836L45.3812 50.4878L42.4437 54.1753L41.9437 53.8211L42.2145 52.8003L39.0062 50.2586C38.1051 49.5503 37.4124 49.4982 36.9229 50.0919C36.6885 50.3992 36.5166 50.9565 36.402 51.7586L40.2354 54.8003C40.6104 54.5503 40.9541 54.3628 41.277 54.2378L41.9229 54.8419L38.9229 58.6336L38.402 58.3003C38.4593 57.9149 38.5843 57.4565 38.777 56.9253L30.7354 50.5503L29.7979 51.4878L29.0479 51.0503C29.3708 50.0242 29.8708 49.0711 30.5479 48.1961L31.6937 48.0086L35.7354 51.2169C35.777 49.7742 35.9645 48.6649 36.2979 47.8836C36.6729 47.4982 37.1416 47.2169 37.6937 47.0503C38.251 46.8732 38.7458 46.9253 39.1937 47.2169L40.027 47.7794L43.5479 50.5711Z" fill="black"/>
<path d="M59.1219 25.2811L61.3719 28.7811L64.5385 26.3853L65.5385 27.9478L62.1427 29.9478L64.0385 32.9061L65.9969 32.0311L66.476 32.7811L61.3302 36.1144L60.9135 35.6978C61.1062 35.3123 61.3823 34.854 61.7469 34.3228L56.6635 26.4894L55.476 27.0519L55.0177 26.3019L62.7885 21.2603C63.3823 22.0936 63.9187 23.1092 64.3927 24.3019L63.1635 25.1144L61.9135 23.7394L59.1219 25.2811Z" fill="black"/>
<path d="M80.1645 24.1525C80.7322 24.1004 81.1906 24.0848 81.5395 24.1108L81.8312 24.9442L77.1437 26.965L76.8728 26.4233C77.1072 26.1056 77.4353 25.7567 77.852 25.3817L73.8103 15.965L72.5395 16.3192L72.0812 15.6108C72.8624 14.8504 73.7478 14.2463 74.7478 13.7983L75.852 14.1733L80.1645 24.1525Z" fill="black"/>
<path d="M98.7937 18.9621L96.9603 20.6079C96.6791 20.6496 96.3666 20.5975 96.0228 20.4413C95.6739 20.2746 95.3614 20.035 95.0853 19.7121L93.5228 21.3788L92.9812 21.5663C92.2572 21.7486 91.6062 21.6861 91.0228 21.3788C90.4499 21.0611 90.0905 20.6079 89.9395 20.0246C89.7312 19.1913 90.0228 18.4204 90.8145 17.7121L94.0645 16.7954L93.6895 15.2746C93.4499 14.3475 93.0437 13.8319 92.4603 13.7329C91.9291 13.8736 91.5228 14.0454 91.2312 14.2538L91.377 16.1913L89.9395 16.5871C89.5385 16.035 89.2416 15.3736 89.0437 14.6079L88.9603 14.2538C89.5332 13.8371 90.2312 13.4152 91.0645 12.9829C91.8978 12.5402 92.5437 12.2538 93.002 12.1288C93.4187 12.035 93.8614 12.0454 94.3353 12.1704C94.8041 12.2954 95.2103 12.5246 95.5437 12.8579C95.7364 13.0402 95.9187 13.4517 96.0853 14.0871L97.1062 18.2329C97.1739 18.4986 97.3457 18.5975 97.627 18.5246L98.4603 18.2121L98.7937 18.9621ZM92.9812 19.9204C93.4395 19.7954 93.9864 19.5038 94.627 19.0454L94.3145 17.7954L93.8978 17.8996C92.7572 18.1913 92.2624 18.6496 92.4187 19.2746C92.4864 19.5819 92.6739 19.7954 92.9812 19.9204Z" fill="black"/>
<path d="M109.292 8.51204C108.511 8.25163 107.844 7.81934 107.292 7.22038C107.625 6.41829 108.084 5.75684 108.667 5.24121C109.386 5.56413 110.021 6.03288 110.563 6.65788C110.281 7.39746 109.86 8.01204 109.292 8.51204ZM111.104 16.887C111.672 17.0277 112.115 17.1683 112.438 17.3037V18.1787L107.354 18.5954L107.271 17.9912C107.604 17.7725 108.026 17.5433 108.542 17.3037L108.063 11.387L106.75 11.3245L106.563 10.4704C107.531 10.0016 108.552 9.71517 109.625 9.61621L110.563 10.3245L111.104 16.887Z" fill="black"/>
<path d="M127.356 10.0074C127.632 9.91367 127.924 9.87722 128.231 9.90326C128.856 9.94493 129.34 10.1533 129.689 10.5283C129.533 11.8356 129.231 12.9397 128.773 13.8408L127.439 13.7366L127.231 11.7366C126.549 12.1689 125.908 12.6897 125.314 13.2991L125.043 16.8616C125.845 17.1012 126.47 17.3512 126.918 17.6116L126.773 18.4866L121.127 18.0491L121.106 17.4449C121.45 17.2783 121.903 17.1272 122.46 16.9866L122.918 11.0491L121.606 10.7783L121.543 9.92409C122.595 9.60638 123.668 9.48138 124.752 9.54909L125.543 10.3824L125.439 11.8408L127.356 10.0074Z" fill="black"/>
</svg>
